<svg width="20" height="20" viewBox="0 0 20 20" fill="none" xmlns="http://www.w3.org/2000/svg">
<circle cx="10" cy="10" r="10" fill="#DE3F4F"/>
<path d="M12.4982 6.914V5.939H7.94818L7.09018 10.723L8.03918 10.775C8.25585 10.515 8.50285 10.307 8.78018 10.151C9.06618 9.98633 9.39118 9.904 9.75518 9.904C10.0672 9.904 10.3489 9.956 10.6002 10.06C10.8602 10.164 11.0812 10.3113 11.2632 10.502C11.4452 10.684 11.5839 10.905 11.6792 11.165C11.7832 11.4163 11.8352 11.6937 11.8352 11.997C11.8352 12.361 11.7832 12.6817 11.6792 12.959C11.5752 13.2277 11.4322 13.453 11.2502 13.635C11.0769 13.817 10.8689 13.9557 10.6262 14.051C10.3922 14.1377 10.1452 14.181 9.88518 14.181C9.60785 14.181 9.35218 14.142 9.11818 14.064C8.89285 13.9773 8.69352 13.8603 8.52018 13.713C8.35552 13.557 8.22118 13.3793 8.11718 13.18C8.02185 12.972 7.96552 12.751 7.94818 12.517H6.84318C6.85185 12.933 6.93418 13.3057 7.09018 13.635C7.24618 13.9643 7.45852 14.2417 7.72718 14.467C7.99585 14.6837 8.30352 14.8527 8.65018 14.974C9.00552 15.0867 9.38252 15.143 9.78118 15.143C10.3185 15.143 10.7865 15.0607 11.1852 14.896C11.5925 14.7227 11.9305 14.493 12.1992 14.207C12.4679 13.921 12.6672 13.596 12.7972 13.232C12.9359 12.8593 13.0052 12.478 13.0052 12.088C13.0052 11.5593 12.9272 11.1 12.7712 10.71C12.6152 10.3113 12.4029 9.982 12.1342 9.722C11.8655 9.45333 11.5492 9.254 11.1852 9.124C10.8212 8.994 10.4355 8.929 10.0282 8.929C9.71618 8.929 9.39985 8.98533 9.07918 9.098C8.76718 9.202 8.51152 9.36667 8.31218 9.592L8.28618 9.566L8.78018 6.914H12.4982Z" fill="white"/>
</svg>
