<svg width="20" height="20" viewBox="0 0 20 20" fill="none" xmlns="http://www.w3.org/2000/svg">
<circle cx="10" cy="10" r="10" fill="#DE3F4F"/>
<path d="M11.7702 8.136H12.8752C12.8059 7.37333 12.5459 6.79267 12.0952 6.394C11.6445 5.98667 11.0379 5.783 10.2752 5.783C9.61652 5.783 9.07052 5.92167 8.63718 6.199C8.20385 6.47633 7.85718 6.84467 7.59718 7.304C7.33718 7.76333 7.15085 8.292 7.03818 8.89C6.93418 9.47933 6.88218 10.0903 6.88218 10.723C6.88218 11.2083 6.91685 11.711 6.98618 12.231C7.06418 12.751 7.21585 13.2277 7.44118 13.661C7.66652 14.0943 7.98718 14.4497 8.40318 14.727C8.81918 15.0043 9.36952 15.143 10.0542 15.143C10.6349 15.143 11.1202 15.0477 11.5102 14.857C11.9089 14.6577 12.2252 14.4107 12.4592 14.116C12.7019 13.8127 12.8752 13.479 12.9792 13.115C13.0832 12.751 13.1352 12.4 13.1352 12.062C13.1352 11.6373 13.0702 11.243 12.9402 10.879C12.8102 10.515 12.6239 10.1987 12.3812 9.93C12.1472 9.66133 11.8525 9.45333 11.4972 9.306C11.1505 9.15 10.7562 9.072 10.3142 9.072C9.81152 9.072 9.36518 9.16733 8.97518 9.358C8.59385 9.54867 8.27318 9.85633 8.01318 10.281L7.98718 10.255C7.99585 9.89967 8.03052 9.51833 8.09118 9.111C8.15185 8.70367 8.26018 8.32667 8.41618 7.98C8.58085 7.62467 8.80618 7.33433 9.09218 7.109C9.37818 6.875 9.75518 6.758 10.2232 6.758C10.6652 6.758 11.0205 6.88367 11.2892 7.135C11.5579 7.38633 11.7182 7.72 11.7702 8.136ZM10.1062 10.047C10.4182 10.047 10.6912 10.1033 10.9252 10.216C11.1592 10.3287 11.3542 10.4803 11.5102 10.671C11.6662 10.853 11.7789 11.074 11.8482 11.334C11.9262 11.5853 11.9652 11.854 11.9652 12.14C11.9652 12.4087 11.9219 12.6687 11.8352 12.92C11.7572 13.1627 11.6402 13.3793 11.4842 13.57C11.3282 13.7607 11.1332 13.9123 10.8992 14.025C10.6739 14.129 10.4095 14.181 10.1062 14.181C9.80285 14.181 9.52985 14.129 9.28718 14.025C9.05318 13.9123 8.85385 13.765 8.68918 13.583C8.53318 13.401 8.41185 13.1843 8.32518 12.933C8.23852 12.6817 8.19518 12.413 8.19518 12.127C8.19518 11.841 8.23418 11.5723 8.31218 11.321C8.39885 11.061 8.52452 10.84 8.68918 10.658C8.85385 10.4673 9.05318 10.32 9.28718 10.216C9.52118 10.1033 9.79418 10.047 10.1062 10.047Z" fill="white"/>
</svg>
